<?xml version="1.0" standalone="no"?>
<!DOCTYPE svg PUBLIC "-//W3C//DTD SVG 20010904//EN"
 "http://www.w3.org/TR/2001/REC-SVG-20010904/DTD/svg10.dtd">
<svg version="1.0" xmlns="http://www.w3.org/2000/svg"
 width="512.000000pt" height="512.000000pt" viewBox="0 0 512.000000 512.000000"
 preserveAspectRatio="xMidYMid meet">
<metadata>
Created by potrace 1.15, written by Peter Selinger 2001-2017
</metadata>
<g transform="translate(0.000000,512.000000) scale(0.100000,-0.100000)"
fill="#000000" stroke="none">
<path d="M340 5000 c-19 -16 -55 -44 -80 -63 -24 -18 -59 -53 -77 -77 -17 -25
-46 -61 -62 -81 -29 -34 -31 -42 -31 -114 l0 -77 125 7 125 7 0 -33 c1 -56 18
-69 93 -69 81 0 97 -6 97 -35 0 -18 7 -24 38 -29 47 -7 69 -30 74 -75 3 -31 7
-36 43 -45 33 -10 41 -16 43 -39 2 -19 9 -27 22 -27 12 0 22 -9 26 -24 3 -15
14 -26 27 -28 14 -2 23 -11 25 -25 2 -17 10 -23 27 -23 19 0 26 -9 40 -50 15
-47 19 -50 50 -50 39 0 54 -16 62 -64 5 -30 10 -36 30 -36 49 0 63 -16 63 -74
l0 -53 -37 -7 c-21 -3 -52 -6 -69 -6 -64 0 -150 -54 -180 -112 -12 -23 -13
-47 -8 -113 4 -47 10 -85 14 -85 4 0 13 -33 20 -72 7 -40 19 -92 26 -116 8
-23 14 -63 14 -87 0 -25 4 -45 10 -45 13 0 30 -66 30 -116 0 -26 5 -44 14 -47
14 -6 36 -79 36 -121 0 -14 4 -26 8 -26 11 0 42 -99 42 -133 0 -15 4 -27 8
-27 12 0 32 -71 32 -114 0 -23 5 -36 13 -36 14 0 47 -82 47 -117 0 -13 4 -23
9 -23 12 0 41 -86 41 -122 0 -16 5 -28 13 -28 15 0 47 -76 47 -113 0 -15 4
-27 10 -27 15 0 50 -76 50 -110 0 -18 5 -30 13 -30 18 0 47 -63 47 -100 0 -20
5 -30 15 -30 21 0 21 -139 1 -178 -8 -15 -157 -169 -331 -342 -237 -235 -330
-335 -370 -395 -29 -44 -78 -105 -109 -135 -48 -47 -56 -59 -56 -92 0 -52
-185 -346 -276 -438 -54 -55 -64 -71 -64 -100 l0 -34 42 41 c24 23 118 89 210
147 137 87 174 106 205 106 34 0 46 8 103 65 40 40 110 94 180 137 106 65 137
93 387 342 l272 270 71 4 c47 3 70 1 70 -7 0 -6 17 -11 39 -11 31 0 44 -6 60
-26 12 -15 21 -37 21 -50 0 -16 6 -24 18 -24 23 0 82 -60 82 -83 0 -10 8 -17
18 -17 23 0 82 -60 82 -83 0 -9 8 -17 18 -17 25 -1 82 -56 82 -80 0 -15 7 -20
28 -20 30 -1 82 -41 82 -65 0 -9 9 -15 23 -15 28 0 97 -46 97 -65 0 -8 9 -15
20 -15 27 0 110 -42 110 -55 0 -6 28 -17 62 -23 59 -11 64 -10 88 12 14 12 52
38 85 56 82 44 237 156 312 224 33 31 66 56 72 56 6 0 11 5 11 12 0 6 35 48
78 93 42 45 102 110 134 145 l56 63 98 -7 c88 -6 102 -10 126 -33 16 -15 28
-37 28 -50 0 -17 6 -23 22 -23 29 0 78 -48 78 -77 0 -17 6 -23 22 -23 29 0 78
-48 78 -77 0 -17 6 -23 22 -23 29 0 78 -48 78 -77 0 -17 6 -23 23 -23 29 0 77
-49 77 -78 0 -16 6 -22 21 -22 24 0 89 -49 89 -67 0 -7 9 -13 21 -13 31 0 99
-43 99 -62 0 -13 8 -18 25 -18 33 0 95 -40 95 -62 0 -13 8 -18 26 -18 35 0
104 -41 104 -62 0 -13 8 -18 25 -18 30 0 95 -39 95 -57 0 -7 9 -13 20 -13 27
0 100 -49 100 -66 0 -8 10 -14 23 -14 28 0 97 -46 97 -65 0 -9 10 -15 25 -15
20 0 25 5 25 25 0 14 -6 25 -14 25 -17 0 -66 73 -66 100 0 11 -6 20 -12 20
-20 0 -58 66 -58 100 0 23 -5 30 -19 30 -23 0 -61 60 -61 96 0 14 -6 24 -15
24 -19 0 -65 69 -65 97 0 13 -6 23 -14 23 -20 0 -56 65 -56 101 0 22 -5 29
-19 29 -24 0 -61 57 -61 94 0 17 -5 26 -15 26 -20 0 -74 60 -75 83 0 10 -8 17
-18 17 -23 0 -82 60 -82 83 0 10 -8 17 -18 17 -23 0 -82 60 -82 83 0 10 -8 17
-18 17 -23 0 -82 60 -82 83 0 10 -8 17 -18 17 -23 0 -82 60 -82 83 0 10 -8 17
-18 17 -23 0 -82 60 -82 83 0 10 -8 17 -18 17 -25 0 -82 61 -82 88 0 13 -6 22
-15 22 -12 0 -15 15 -15 78 0 68 4 86 34 147 18 39 48 83 65 99 25 24 31 38
31 71 0 50 71 228 106 266 17 18 24 37 24 64 0 47 56 212 82 241 11 12 18 36
18 60 0 43 50 208 69 227 6 6 11 26 11 43 0 40 46 214 60 228 5 5 10 25 10 43
0 41 38 205 50 217 6 6 10 30 10 55 0 26 5 65 10 89 10 41 8 46 -20 82 -16 21
-30 44 -30 52 0 10 -22 19 -66 28 -36 8 -67 17 -70 22 -3 4 -30 8 -60 8 l-55
0 3 58 3 57 43 15 c33 11 42 19 42 38 0 30 52 82 82 82 19 0 27 9 41 50 17 49
53 80 90 80 8 0 19 18 26 40 13 44 57 80 97 80 17 0 23 8 28 35 5 23 19 44 41
62 26 20 35 36 35 57 l0 29 79 -6 c69 -4 82 -3 96 13 10 11 27 20 38 22 12 2
23 12 25 23 8 38 22 45 96 44 39 -1 85 -4 101 -8 25 -5 32 -2 42 17 15 28 6
152 -11 152 -15 0 -56 79 -56 108 0 13 -6 22 -16 22 -20 0 -84 51 -84 68 0 6
-9 12 -20 12 -21 0 -103 39 -108 52 -2 4 -35 8 -73 8 -67 0 -69 -1 -64 -22 3
-13 6 -70 7 -128 l3 -105 -50 -5 -50 -5 -3 -107 -3 -108 -30 0 c-19 0 -32 -6
-36 -17 -12 -34 -36 -53 -74 -59 -31 -5 -38 -11 -43 -37 -10 -49 -33 -75 -76
-88 -22 -7 -40 -18 -40 -26 0 -37 -31 -73 -80 -90 -39 -14 -50 -22 -50 -39 0
-33 -37 -73 -75 -80 -27 -5 -35 -12 -40 -35 -4 -16 -20 -40 -36 -53 -16 -14
-29 -29 -29 -35 0 -7 -33 -11 -90 -11 -58 0 -104 -5 -127 -15 -57 -24 -183
-13 -183 16 0 5 -11 9 -25 9 -45 0 -94 27 -101 54 -6 23 -11 26 -55 26 -54 0
-99 17 -99 37 0 7 -11 13 -26 13 -31 0 -104 40 -104 58 0 6 -10 12 -23 12 -28
0 -97 46 -97 65 0 9 -9 15 -22 15 -31 0 -98 49 -98 71 0 12 -7 19 -21 19 -27
0 -89 50 -89 73 0 9 -7 17 -16 17 -20 0 -84 51 -84 68 0 8 -22 12 -78 12 l-77
0 -125 -125 c-165 -166 -376 -305 -463 -305 -20 0 -45 -4 -55 -9 -9 -5 -29
-14 -44 -20 -16 -6 -30 -21 -34 -35 -8 -34 -146 -86 -227 -86 -31 0 -57 4 -57
9 0 5 -38 12 -85 16 -47 4 -85 11 -85 16 0 5 -18 9 -40 9 -48 0 -90 34 -90 73
0 20 -6 25 -36 30 -49 8 -74 33 -74 72 0 29 -4 33 -47 46 -41 12 -48 18 -51
42 -2 15 -9 27 -18 27 -8 0 -19 11 -24 25 -7 18 -17 25 -35 25 -18 0 -25 5
-25 19 0 13 -8 21 -22 23 -16 2 -25 13 -32 38 -13 44 -28 60 -60 60 -31 0 -66
43 -66 81 0 24 -4 29 -24 29 -20 0 -24 6 -30 46 -3 26 -6 63 -6 82 0 42 -22
61 -69 62 l-34 0 7 111 c4 61 10 117 13 125 4 11 -10 14 -78 13 -78 0 -87 -2
-119 -29z"/>
</g>
</svg>
